<svg xmlns="http://www.w3.org/2000/svg" viewBox="0 0 120 120"><defs><style>.cls-1{fill:#fff;}.cls-2{fill:#f3a30c;}.cls-3{fill:#d97c0f;}.cls-4{fill:none;stroke:#fff;stroke-miterlimit:10;}.cls-5{fill:#d95813;}.cls-6{fill:#ab4b21;}</style></defs><g id="Camada_2" data-name="Camada 2"><circle class="cls-1" cx="24.76" cy="59.82" r="9.34"/><path class="cls-2" d="M25.57,73.29A21.48,21.48,0,0,1,19,76.53,21.8,21.8,0,0,1,16,69.79a21,21,0,0,1-.64-5.31,21.5,21.5,0,0,1,.39-4.07A21.74,21.74,0,0,0,17,63.75a23.11,23.11,0,0,0,1.72,3,22.25,22.25,0,0,0,6.84,6.49Z"/><path class="cls-3" d="M21.38,70a20.58,20.58,0,0,1-2.16-2.56,10,10,0,0,1,.09,9,21.62,21.62,0,0,0,6.26-3.13A21.7,21.7,0,0,1,21.38,70Z"/><path class="cls-2" d="M34.83,69a22.05,22.05,0,0,1-2.39,7,22.15,22.15,0,0,1-6.85-2.69h0a22.25,22.25,0,0,1-6.84-6.49,21.39,21.39,0,0,0,6.7,2.46,21.61,21.61,0,0,0,9.4-.25Z"/><path class="cls-3" d="M24.78,72.77l.79.52h0A22.15,22.15,0,0,0,32.44,76a22.05,22.05,0,0,0,2.39-7,21,21,0,0,1-3.63.59A37.17,37.17,0,0,1,24.78,72.77Z"/><path class="cls-2" d="M24.49,46.73a20.69,20.69,0,0,0-3.92,3.62,21.07,21.07,0,0,0-5.32.65,22.25,22.25,0,0,1,2.39-7A21.78,21.78,0,0,1,24.49,46.73Z"/><path class="cls-2" d="M34.7,55.54a21.78,21.78,0,0,1-.4,4.08,23,23,0,0,0-1.24-3.35l0-.05a8.85,8.85,0,0,0-4.91-4.52l-.06,0h0a8.83,8.83,0,0,0-6.66.28l-.07,0a21.58,21.58,0,0,0-3.08,1.76,19.89,19.89,0,0,1,2.34-3.38,20.69,20.69,0,0,1,3.92-3.62,21.41,21.41,0,0,1,6.62-3.26,22.31,22.31,0,0,1,2.94,6.75A21.53,21.53,0,0,1,34.7,55.54Z"/><path class="cls-3" d="M34,50.22A22,22,0,0,0,32,45a7.6,7.6,0,0,1-3.32,7A8.86,8.86,0,0,1,33,56.21a.42.42,0,0,1,0,.06,21.74,21.74,0,0,1,1.23,3.34,21.7,21.7,0,0,0,.4-4.08A21,21,0,0,0,34,50.22Z"/><path class="cls-2" d="M41.57,66.07A21.8,21.8,0,0,1,34.83,69a21.61,21.61,0,0,1-9.4.25A22.19,22.19,0,0,0,28.79,68a22.73,22.73,0,0,0,3.05-1.74A20.66,20.66,0,0,0,35,63.69v0a20.79,20.79,0,0,0,3.29-4.21A21.67,21.67,0,0,1,41.57,66.07Z"/><path class="cls-3" d="M41.57,66.07a21.89,21.89,0,0,0-1.28-3.32,12.76,12.76,0,0,1-5.75,6.32l.29-.06A21.8,21.8,0,0,0,41.57,66.07Z"/><path class="cls-2" d="M20.57,50.35a19.89,19.89,0,0,0-2.34,3.38A21.29,21.29,0,0,0,15,56.35a20.82,20.82,0,0,0-3.28,4.21,21.89,21.89,0,0,1-3.25-6.63A21.45,21.45,0,0,1,15.25,51,21.07,21.07,0,0,1,20.57,50.35Z"/><path class="cls-2" d="M41,52.79A1.05,1.05,0,0,0,41,52.6a21.87,21.87,0,0,0-7-2.38,21.53,21.53,0,0,1,.65,5.32,22.88,22.88,0,0,1-.34,3.67C36.76,57.26,39.26,55.42,41,52.79Z"/><path class="cls-2" d="M34.36,59.21c0,.13,0,.27-.06.41A21.78,21.78,0,0,1,33.36,63a20.67,20.67,0,0,1-1.52,3.26A20.66,20.66,0,0,0,35,63.69v0a20.79,20.79,0,0,0,3.29-4.21h0A21.28,21.28,0,0,0,41,52.79C39.26,55.42,36.76,57.26,34.36,59.21Z"/><path class="cls-3" d="M34.36,59.21c0,.13,0,.27-.06.41A21.78,21.78,0,0,1,33.36,63a20.67,20.67,0,0,1-1.52,3.26A20.66,20.66,0,0,0,35,63.69v0a20.79,20.79,0,0,0,3.29-4.21h0A21.28,21.28,0,0,0,41,52.79C39.26,55.42,36.76,57.26,34.36,59.21Z"/><path class="cls-2" d="M15.78,60.41a21.5,21.5,0,0,0-.39,4.07A21,21,0,0,0,16,69.79a21.92,21.92,0,0,1-7-2.38,21.81,21.81,0,0,1,2.69-6.85A20.82,20.82,0,0,1,15,56.35a21.29,21.29,0,0,1,3.19-2.62A20.84,20.84,0,0,0,16.72,57,22.21,22.21,0,0,0,15.78,60.41Z"/><path class="cls-4" d="M25.57,73.29A21.48,21.48,0,0,1,19,76.53,21.8,21.8,0,0,1,16,69.79a21,21,0,0,1-.64-5.31,21.5,21.5,0,0,1,.39-4.07A21.74,21.74,0,0,0,17,63.75a23.11,23.11,0,0,0,1.72,3,22.25,22.25,0,0,0,6.84,6.49Z"/><path class="cls-4" d="M34.83,69a22.05,22.05,0,0,1-2.39,7,22.15,22.15,0,0,1-6.85-2.69h0a22.25,22.25,0,0,1-6.84-6.49,21.39,21.39,0,0,0,6.7,2.46,21.61,21.61,0,0,0,9.4-.25Z"/><path class="cls-4" d="M24.49,46.73a20.69,20.69,0,0,0-3.92,3.62,21.07,21.07,0,0,0-5.32.65,22.25,22.25,0,0,1,2.39-7A21.78,21.78,0,0,1,24.49,46.73Z"/><path class="cls-4" d="M34.7,55.54a21.78,21.78,0,0,1-.4,4.08,23,23,0,0,0-1.24-3.35l0-.05a8.85,8.85,0,0,0-4.91-4.52l-.06,0h0a8.83,8.83,0,0,0-6.66.28l-.07,0a21.58,21.58,0,0,0-3.08,1.76,19.89,19.89,0,0,1,2.34-3.38,20.69,20.69,0,0,1,3.92-3.62,21.41,21.41,0,0,1,6.62-3.26,22.31,22.31,0,0,1,2.94,6.75A21.53,21.53,0,0,1,34.7,55.54Z"/><path class="cls-4" d="M41.57,66.07A21.8,21.8,0,0,1,34.83,69a21.61,21.61,0,0,1-9.4.25A22.19,22.19,0,0,0,28.79,68a22.73,22.73,0,0,0,3.05-1.74A20.66,20.66,0,0,0,35,63.69v0a20.79,20.79,0,0,0,3.29-4.21A21.67,21.67,0,0,1,41.57,66.07Z"/><path class="cls-4" d="M20.57,50.35a19.89,19.89,0,0,0-2.34,3.38A21.29,21.29,0,0,0,15,56.35a20.82,20.82,0,0,0-3.28,4.21,21.89,21.89,0,0,1-3.25-6.63A21.45,21.45,0,0,1,15.25,51,21.07,21.07,0,0,1,20.57,50.35Z"/><path class="cls-4" d="M41,52.6a21.62,21.62,0,0,1-2.71,6.85h0A20.79,20.79,0,0,1,35,63.67v0a20.66,20.66,0,0,1-3.18,2.61A20.67,20.67,0,0,0,33.36,63a22.45,22.45,0,0,0,1.34-7.5,21.53,21.53,0,0,0-.65-5.32A21.87,21.87,0,0,1,41,52.6Z"/><path class="cls-4" d="M15.78,60.41a21.5,21.5,0,0,0-.39,4.07A21,21,0,0,0,16,69.79a21.92,21.92,0,0,1-7-2.38,21.81,21.81,0,0,1,2.69-6.85A20.82,20.82,0,0,1,15,56.35a21.29,21.29,0,0,1,3.19-2.62A20.84,20.84,0,0,0,16.72,57,22.21,22.21,0,0,0,15.78,60.41Z"/><circle class="cls-5" cx="25.04" cy="60" r="8.52"/><path class="cls-6" d="M28.75,52.34c.67,6-4,11.11-9.93,13.46a8.51,8.51,0,1,0,9.93-13.46Z"/><path class="cls-1" d="M50,54.15c.14.08.23.15.29.19a2.41,2.41,0,0,1,.32.28,1.84,1.84,0,0,1,.33.45,3.57,3.57,0,0,1,.33,1.5,1.47,1.47,0,0,1-.44,1,3.25,3.25,0,0,1-1,.73,3.41,3.41,0,0,1-1,.32,1.73,1.73,0,0,1-.55,0,2.32,2.32,0,0,1-.44-.12,1.27,1.27,0,0,1-.31-.17l-.27-.19s0,.09,0,.24a.4.4,0,0,1-.1.29.6.6,0,0,1-.3.13,5.44,5.44,0,0,1-1.25,0q-.93-.09-.93-.33s0-.47,0-1.29,0-1.68,0-2.54,0-1.71,0-2.52a13.91,13.91,0,0,1,.05-1.44c0-.21.26-.35.7-.41a5.16,5.16,0,0,1,1.3,0c.42,0,.64.11.65.18v.25l.31-.18a3.25,3.25,0,0,1,2.26.1,2.16,2.16,0,0,1,1.2,1.65,1.23,1.23,0,0,1,0,.6,1.69,1.69,0,0,1-.26.52c-.12.14-.23.27-.35.39a3.34,3.34,0,0,1-.3.28ZM47.4,56.79a.46.46,0,0,0,.35.16,1.85,1.85,0,0,0,.57,0,1.39,1.39,0,0,0,.53-.22.42.42,0,0,0,.23-.33.68.68,0,0,0-.33-.61,1.24,1.24,0,0,0-.73-.2,1,1,0,0,0-.62.17.66.66,0,0,0-.11.5A1.53,1.53,0,0,0,47.4,56.79Zm0-3.69a1.23,1.23,0,0,0,.5.06,1.8,1.8,0,0,0,.76-.17c.24-.12.31-.26.22-.42a1.16,1.16,0,0,0-.78-.51c-.36-.08-.59,0-.7.19a1.06,1.06,0,0,0-.08.43A1,1,0,0,0,47.4,53.1Z"/><path class="cls-1" d="M55.23,50.26q3.17,0,3.16,4.41a6,6,0,0,1-.07,1,6.59,6.59,0,0,1-.23.9,3.43,3.43,0,0,1-.41.81,3.09,3.09,0,0,1-.6.65,2.77,2.77,0,0,1-.82.43,3.37,3.37,0,0,1-1,.15,4.31,4.31,0,0,1-.9-.08,3,3,0,0,1-.84-.33,2.37,2.37,0,0,1-.74-.63,3.19,3.19,0,0,1-.49-1,5.21,5.21,0,0,1-.19-1.5c0-.35,0-.67,0-1a8.34,8.34,0,0,1,.12-.94,6,6,0,0,1,.23-.89,4.06,4.06,0,0,1,.39-.78,2.58,2.58,0,0,1,.56-.62,2.77,2.77,0,0,1,.79-.39A3.44,3.44,0,0,1,55.23,50.26Zm.85,5.18a4.16,4.16,0,0,0,.14-.87,4,4,0,0,0,0-.86,1.32,1.32,0,0,0-.29-.67.71.71,0,0,0-.56-.26.74.74,0,0,0-.58.28,1.61,1.61,0,0,0-.36.7,3.38,3.38,0,0,0-.09.92,3.13,3.13,0,0,0,.16.93.78.78,0,0,0,.49.55.77.77,0,0,0,.69-.09A1,1,0,0,0,56.08,55.44Z"/><path class="cls-1" d="M67.67,50.56q0,.52-.12,7.87c0,.14-.17.25-.5.31a2.8,2.8,0,0,1-1,0c-.34-.06-.51-.17-.53-.32,0-.46-.08-2-.08-4.56,0,0-.19.21-.49.57a8.07,8.07,0,0,1-.78.82,1,1,0,0,1-.57.3,1.2,1.2,0,0,1-.58-.22,2.61,2.61,0,0,1-.53-.43c-.15-.15-.32-.34-.51-.56a4.16,4.16,0,0,0-.41-.42,11.92,11.92,0,0,1,.18,2.28,12.31,12.31,0,0,1-.12,2.23c0,.08-.2.15-.54.22a3.5,3.5,0,0,1-1,.06c-.33,0-.5-.11-.5-.23s0-.56,0-1.43,0-1.74-.06-2.61,0-1.72,0-2.53,0-1.29,0-1.41.18-.39.48-.47a2.36,2.36,0,0,1,1,0,1.76,1.76,0,0,1,.79.33,5.76,5.76,0,0,1,.77.87c.26.36.5.7.71,1a3.74,3.74,0,0,0,.43.61c.11-.15.23-.33.36-.55s.24-.4.33-.58.2-.37.32-.56a5.4,5.4,0,0,1,.37-.48,1.53,1.53,0,0,1,.42-.34,1.29,1.29,0,0,1,.54-.15l.21,0a4.66,4.66,0,0,1,1.13,0C67.53,50.21,67.67,50.34,67.67,50.56Z"/><path class="cls-1" d="M78.89,54.4A4.06,4.06,0,0,1,78.51,56a5,5,0,0,1-1,1.41,4.66,4.66,0,0,1-1.53,1,4.71,4.71,0,0,1-1.94.4h-.83a1.4,1.4,0,0,1-.34,0l-.25-.06a.37.37,0,0,1-.18-.11.47.47,0,0,1-.06-.15c0-.15,0-.56,0-1.21s0-1.3,0-1.94,0-1.32,0-2,0-1.31,0-1.8a3.59,3.59,0,0,1,.11-.93.33.33,0,0,1,.11-.15l.14-.08.2,0h.53l.33,0Q78.83,50.42,78.89,54.4Zm-2.32.25a1.14,1.14,0,0,0-.27-1.22,1.36,1.36,0,0,0-1.24-.51.69.69,0,0,0-.66.43,2.57,2.57,0,0,0-.08,1.1c0,.08,0,.23,0,.43s0,.36,0,.5a1.8,1.8,0,0,0,.08.39.52.52,0,0,0,.19.27c.17.11.41.07.71-.09a3.26,3.26,0,0,0,.79-.65A2,2,0,0,0,76.57,54.65Z"/><path class="cls-1" d="M82.2,58.62a.78.78,0,0,1-.39.07,3.52,3.52,0,0,1-.66-.06c-.2,0-.44-.06-.72-.08l-.42,0L80,58.26a18.32,18.32,0,0,1-.15-2.09c-.06-1.19-.07-2.08-.06-2.68a20.43,20.43,0,0,1,.19-3,.2.2,0,0,1,.15-.12,4.23,4.23,0,0,1,.6,0l.95.06a1.67,1.67,0,0,1,.52.08s.07,1.15.08,3.34c0,.91,0,1.75,0,2.54s0,1.27,0,1.47C82.27,58.31,82.26,58.57,82.2,58.62Z"/><path class="cls-1" d="M89.29,58.41c0,.1-.16.17-.5.22a4.44,4.44,0,0,1-1,0c-.35-.05-.55-.14-.58-.27-.21-.84-.36-1.4-.45-1.67s-.21-.21-.46-.22-.39.06-.43.21-.2.64-.55,1.79q-.06.15-.6.18a5.76,5.76,0,0,1-1.1,0c-.36-.06-.54-.14-.55-.24s.19-1.38.6-3.62a33.42,33.42,0,0,1,.91-4.09c.08-.18.36-.31.84-.38a4.57,4.57,0,0,1,1.43,0c.47.07.75.21.82.4q.19.54.93,3.93C89.05,56.87,89.29,58.13,89.29,58.41Zm-2.73-3.83a7.31,7.31,0,0,0-.06-.82c0-.33-.09-.63-.14-.89s-.09-.39-.13-.38-.17.26-.28.8a5.79,5.79,0,0,0-.14,1.29.23.23,0,0,0,.2.2.74.74,0,0,0,.36,0C86.5,54.7,86.56,54.64,86.56,54.58Z"/><path class="cls-1" d="M50.55,60.37c.2,0,.33.16.4.49a2.11,2.11,0,0,1,0,1c-.08.33-.21.5-.37.5a31.85,31.85,0,0,1-3.38,0,.26.26,0,0,0-.14,0,.17.17,0,0,0-.06.12,1,1,0,0,0,0,.17L47,63c0,.11,0,.21,0,.3a14.84,14.84,0,0,1,3.4.08c.14,0,.21.32.19.91s-.1,1-.24,1.08a1.59,1.59,0,0,1-.61.06l-1.12,0a6.26,6.26,0,0,0-1.08,0c-.32,0-.49.13-.5.26s0,.52-.05.75,0,.42,0,.55v.72c0,.35,0,.65,0,.9q0,.06-.24.12a3,3,0,0,1-.58.07,3.75,3.75,0,0,1-.67,0,1.67,1.67,0,0,1-.59-.12c-.16-.07-.24-.17-.24-.29V60.88a.49.49,0,0,1,.26-.42,1.75,1.75,0,0,1,.7-.23,7.2,7.2,0,0,1,1-.08c.35,0,.73,0,1.14,0l1.12.07,1,.08C50.17,60.35,50.4,60.37,50.55,60.37Z"/><path class="cls-1" d="M57.7,67.52a3.13,3.13,0,0,1-.12.69l-.09.22-.44,0a23,23,0,0,1-3.25.15h-.06a8.45,8.45,0,0,1-1.39-.08c-.15,0-.26-.18-.35-.41a0,0,0,0,0,0,0,1.9,1.9,0,0,1-.09-.55c0-.22,0-.84,0-1.84,0-1.4,0-2.39.07-3s.08-1.17.11-1.6a1.91,1.91,0,0,1,.13-.78,2.61,2.61,0,0,1,1.11-.2c.54,0,.84,0,.88.19a.59.59,0,0,0,.12.19.26.26,0,0,1,.07.16,3.19,3.19,0,0,1,0,.37c0,.29,0,1.13-.07,2.53,0,1.14,0,1.85,0,2.12s.08.43.19.45a9.87,9.87,0,0,0,2,.1l.88,0a.27.27,0,0,1,.22.08C57.73,66.5,57.76,66.89,57.7,67.52Z"/><path class="cls-1" d="M61.38,60.26q3.16,0,3.17,4.41a6,6,0,0,1-.08,1,5.4,5.4,0,0,1-.23.9,3.4,3.4,0,0,1-.4.81,3.73,3.73,0,0,1-.6.65,2.56,2.56,0,0,1-.82.43,3.44,3.44,0,0,1-1,.16,4.13,4.13,0,0,1-.89-.09,2.58,2.58,0,0,1-.85-.33,2.33,2.33,0,0,1-.73-.63,3.09,3.09,0,0,1-.49-1,5.21,5.21,0,0,1-.19-1.5c0-.34,0-.67,0-1a8.34,8.34,0,0,1,.12-.94,5,5,0,0,1,.23-.89,4,4,0,0,1,.38-.78,2.42,2.42,0,0,1,.57-.62,2.65,2.65,0,0,1,.79-.39A3.37,3.37,0,0,1,61.38,60.26Zm.85,5.18a4.17,4.17,0,0,0,.15-.87,4.77,4.77,0,0,0,0-.86,1.41,1.41,0,0,0-.29-.67.73.73,0,0,0-.56-.26.77.77,0,0,0-.59.28,1.6,1.6,0,0,0-.35.7,3.38,3.38,0,0,0-.09.92,3.48,3.48,0,0,0,.15.93.82.82,0,0,0,.5.55.77.77,0,0,0,.69-.09A1,1,0,0,0,62.23,65.44Z"/><path class="cls-1" d="M71,64.89a2.46,2.46,0,0,1-2,.48l.85.23.83.23a5.33,5.33,0,0,1,.67.25,3.9,3.9,0,0,1,.67.38.39.39,0,0,1,.11.24,1.36,1.36,0,0,1,0,.39c0,.14-.07.29-.12.46a2.72,2.72,0,0,1-.19.47l-.23.39a.83.83,0,0,1-.26.24.23.23,0,0,1-.22,0c-.26-.13-.77-.34-1.54-.64s-1.24-.51-1.43-.62c0,.43,0,.81,0,1.16,0,.1-.2.18-.61.24a4.76,4.76,0,0,1-1.25,0c-.42-.06-.64-.18-.66-.34-.05-.53-.08-1.86-.08-4s0-3.44.08-3.91c0-.14.2-.25.53-.32a3.84,3.84,0,0,1,1.08-.06,1.79,1.79,0,0,1,.81.18.22.22,0,0,1,.11.1.51.51,0,0,1,0,.12v.18a1.49,1.49,0,0,0,0,.17l.71-.26.71-.2a2.57,2.57,0,0,1,.83-.1,1.48,1.48,0,0,1,.67.18,1.56,1.56,0,0,1,.69.68,2.21,2.21,0,0,1,.23,1,4.33,4.33,0,0,1-.13,1.06,3.7,3.7,0,0,1-.38,1A2,2,0,0,1,71,64.89Zm-2.85-1.37c0,.21.24.21.7,0A2.76,2.76,0,0,0,70,62.74a.45.45,0,0,0,.12-.27c0-.22-.19-.28-.56-.18a2.2,2.2,0,0,0-1.1.63A.81.81,0,0,0,68.17,63.52Z"/><path class="cls-1" d="M83.1,64.4A3.88,3.88,0,0,1,82.72,66a4.77,4.77,0,0,1-1,1.41,5,5,0,0,1-3.47,1.42h-.46l-.37,0a1.46,1.46,0,0,1-.34,0l-.25-.06a.5.5,0,0,1-.18-.11.39.39,0,0,1-.06-.15c0-.15,0-.55,0-1.21s0-1.3,0-1.94,0-1.32,0-2,0-1.31,0-1.8a4.14,4.14,0,0,1,.11-.93.33.33,0,0,1,.11-.15l.14-.08.2,0h.53l.33,0Q83,60.42,83.1,64.4Zm-2.31.25a1.17,1.17,0,0,0-.27-1.22,1.39,1.39,0,0,0-1.25-.51.69.69,0,0,0-.66.43,2.74,2.74,0,0,0-.08,1.1c0,.09,0,.23,0,.43s0,.36,0,.5a1.34,1.34,0,0,0,.07.39.48.48,0,0,0,.19.27c.18.11.41.08.71-.09a3.26,3.26,0,0,0,.8-.65A2.39,2.39,0,0,0,80.79,64.65Z"/><path class="cls-1" d="M86.91,60.26q3.16,0,3.16,4.41a6,6,0,0,1-.07,1,6.59,6.59,0,0,1-.23.9,3.43,3.43,0,0,1-.41.81,3.09,3.09,0,0,1-.6.65,2.56,2.56,0,0,1-.82.43,3.37,3.37,0,0,1-1,.16,4.29,4.29,0,0,1-.9-.09,2.53,2.53,0,0,1-.84-.33,2.37,2.37,0,0,1-.74-.63,3.09,3.09,0,0,1-.49-1,5.21,5.21,0,0,1-.19-1.5c0-.34,0-.67,0-1a8.34,8.34,0,0,1,.12-.94,6,6,0,0,1,.23-.89,4.06,4.06,0,0,1,.39-.78,2.58,2.58,0,0,1,.56-.62,2.77,2.77,0,0,1,.79-.39A3.44,3.44,0,0,1,86.91,60.26Zm.85,5.18a3.59,3.59,0,0,0,.14-.87,4,4,0,0,0,0-.86,1.32,1.32,0,0,0-.29-.67.71.71,0,0,0-.56-.26.74.74,0,0,0-.58.28,1.61,1.61,0,0,0-.36.7,3.38,3.38,0,0,0-.09.92,3.13,3.13,0,0,0,.16.93.78.78,0,0,0,.5.55.76.76,0,0,0,.68-.09A1,1,0,0,0,87.76,65.44Z"/><path class="cls-1" d="M101.09,64.4a4.06,4.06,0,0,1-.38,1.56,5.18,5.18,0,0,1-1,1.41,4.66,4.66,0,0,1-1.53,1,4.71,4.71,0,0,1-1.94.4h-.46l-.37,0a1.4,1.4,0,0,1-.34,0l-.25-.06a.37.37,0,0,1-.18-.11.39.39,0,0,1-.06-.15c0-.15,0-.55,0-1.21s0-1.3,0-1.94,0-1.32,0-2,0-1.31,0-1.8a3.59,3.59,0,0,1,.11-.93.33.33,0,0,1,.11-.15l.14-.08.2,0h.53l.33,0Q101,60.42,101.09,64.4Zm-2.32.25a1.14,1.14,0,0,0-.27-1.22,1.36,1.36,0,0,0-1.24-.51.69.69,0,0,0-.66.43,2.57,2.57,0,0,0-.08,1.1c0,.09,0,.23,0,.43s0,.36,0,.5a1.8,1.8,0,0,0,.08.39.48.48,0,0,0,.19.27.67.67,0,0,0,.7-.09,2.93,2.93,0,0,0,.8-.65A2,2,0,0,0,98.77,64.65Z"/><path class="cls-1" d="M104.4,68.62a.78.78,0,0,1-.39.07,3.52,3.52,0,0,1-.66-.06l-.72-.08-.42,0-.06-.25a18.32,18.32,0,0,1-.15-2.09c-.06-1.19-.07-2.08-.06-2.68a20.43,20.43,0,0,1,.19-3,.2.2,0,0,1,.15-.12,4.23,4.23,0,0,1,.6,0l1,.06a1.67,1.67,0,0,1,.52.08s.07,1.15.08,3.34c0,.91,0,1.75,0,2.54s0,1.27,0,1.47C104.47,68.31,104.46,68.57,104.4,68.62Z"/><path class="cls-1" d="M111.49,68.41c0,.1-.16.17-.5.22a4.44,4.44,0,0,1-1,0c-.36,0-.55-.14-.58-.27-.21-.84-.36-1.4-.45-1.67s-.21-.21-.46-.22-.39.06-.43.21-.2.64-.55,1.79q-.06.15-.6.18a5,5,0,0,1-1.1-.05c-.36-.06-.54-.14-.55-.24s.19-1.37.6-3.62a33.42,33.42,0,0,1,.91-4.09c.08-.18.36-.31.84-.38a4.57,4.57,0,0,1,1.43,0c.47.07.75.21.82.4q.19.54.93,3.93C111.25,66.87,111.49,68.13,111.49,68.41Zm-2.73-3.83a7.31,7.31,0,0,0-.06-.82c0-.33-.09-.63-.14-.89s-.09-.39-.13-.38-.17.26-.28.8a5.79,5.79,0,0,0-.14,1.29.23.23,0,0,0,.2.2.74.74,0,0,0,.36,0C108.7,64.7,108.76,64.64,108.76,64.58Z"/></g></svg>