<svg xmlns="http://www.w3.org/2000/svg" viewBox="0 0 120 120"><defs><style>.cls-1{fill:#fff;}.cls-2{fill:#f3a30c;}.cls-3{fill:#d97c0f;}.cls-4{fill:none;stroke:#fff;stroke-miterlimit:10;}.cls-5{fill:#d95813;}.cls-6{fill:#ab4b21;}</style></defs><g id="Camada_2" data-name="Camada 2"><circle class="cls-1" cx="59.6" cy="45.9" r="13.28"/><path class="cls-2" d="M60.76,65.05a30.66,30.66,0,0,1-9.39,4.61,31.27,31.27,0,0,1-4.18-9.58,29.42,29.42,0,0,1-.91-7.56,31.42,31.42,0,0,1,.55-5.78,32.49,32.49,0,0,0,1.76,4.75,30.85,30.85,0,0,0,6.2,8.88A30.42,30.42,0,0,0,60.76,65.05Z"/><path class="cls-3" d="M54.79,60.37a30.81,30.81,0,0,1-3.07-3.63,14.1,14.1,0,0,1,.13,12.76,30.75,30.75,0,0,0,8.91-4.45A30.42,30.42,0,0,1,54.79,60.37Z"/><path class="cls-2" d="M73.92,59a31.52,31.52,0,0,1-3.4,9.93,31.4,31.4,0,0,1-9.74-3.84h0A31.32,31.32,0,0,1,51,55.83,29.28,29.28,0,0,0,55.68,58a28.36,28.36,0,0,0,4.88,1.34A30.75,30.75,0,0,0,73.92,59Z"/><path class="cls-3" d="M59.63,64.32c.37.25.75.5,1.13.73h0a31.4,31.4,0,0,0,9.74,3.84A31.52,31.52,0,0,0,73.92,59a29.68,29.68,0,0,1-5.16.83A52.73,52.73,0,0,1,59.63,64.32Z"/><path class="cls-2" d="M59.22,27.28a29.61,29.61,0,0,0-5.57,5.16,29.5,29.5,0,0,0-7.57.92,31.49,31.49,0,0,1,3.4-9.91A31.14,31.14,0,0,1,59.22,27.28Z"/><path class="cls-2" d="M73.73,39.81a30.8,30.8,0,0,1-.56,5.8,32.49,32.49,0,0,0-1.76-4.75.26.26,0,0,0,0-.08,12.56,12.56,0,0,0-7-6.42s0,0-.07,0h0a12.55,12.55,0,0,0-9.48.4.32.32,0,0,0-.09,0,29.83,29.83,0,0,0-4.39,2.49,28.31,28.31,0,0,1,3.34-4.8,29.61,29.61,0,0,1,5.57-5.16,31,31,0,0,1,9.41-4.63,31.7,31.7,0,0,1,4.18,9.6A30,30,0,0,1,73.73,39.81Z"/><path class="cls-3" d="M72.76,32.25a31.24,31.24,0,0,0-2.92-7.48c.33,3.59-1.41,8-4.71,9.92a12.68,12.68,0,0,1,6.2,6.08.26.26,0,0,0,0,.08,31.32,31.32,0,0,1,1.75,4.75,29.93,29.93,0,0,0,.57-5.8A30.31,30.31,0,0,0,72.76,32.25Z"/><path class="cls-2" d="M83.51,54.78A31,31,0,0,1,73.92,59a30.75,30.75,0,0,1-13.36.35,29.73,29.73,0,0,0,4.77-1.74,31.17,31.17,0,0,0,4.34-2.46A30.32,30.32,0,0,0,74.2,51.4v0a30.19,30.19,0,0,0,4.68-6A30.86,30.86,0,0,1,83.51,54.78Z"/><path class="cls-3" d="M83.51,54.78a32.09,32.09,0,0,0-1.83-4.71c-1.32,3.65-4.36,6.73-8.17,9l.41-.09A31,31,0,0,0,83.51,54.78Z"/><path class="cls-2" d="M53.65,32.44a28.31,28.31,0,0,0-3.34,4.8A30.75,30.75,0,0,0,45.79,41a29.16,29.16,0,0,0-4.66,6,31.12,31.12,0,0,1-4.64-9.42,30.73,30.73,0,0,1,9.59-4.17A29.5,29.5,0,0,1,53.65,32.44Z"/><path class="cls-2" d="M82.67,35.91c0-.09,0-.18.07-.27a31.25,31.25,0,0,0-9.93-3.39,30,30,0,0,1,.92,7.56A30.81,30.81,0,0,1,73.25,45C76.66,42.26,80.22,39.64,82.67,35.91Z"/><path class="cls-2" d="M73.25,45c0,.19,0,.39-.08.58a30.83,30.83,0,0,1-1.34,4.86,28.62,28.62,0,0,1-2.16,4.65A30.32,30.32,0,0,0,74.2,51.4v0a30.19,30.19,0,0,0,4.68-6v0a31,31,0,0,0,3.78-9.47C80.22,39.64,76.66,42.26,73.25,45Z"/><path class="cls-3" d="M73.25,45c0,.19,0,.39-.08.58a30.83,30.83,0,0,1-1.34,4.86,28.62,28.62,0,0,1-2.16,4.65A30.32,30.32,0,0,0,74.2,51.4v0a30.19,30.19,0,0,0,4.68-6v0a31,31,0,0,0,3.78-9.47C80.22,39.64,76.66,42.26,73.25,45Z"/><path class="cls-2" d="M46.83,46.74a31.42,31.42,0,0,0-.55,5.78,29.42,29.42,0,0,0,.91,7.56,31.33,31.33,0,0,1-9.9-3.39A30.73,30.73,0,0,1,41.13,47a29.16,29.16,0,0,1,4.66-6,30.75,30.75,0,0,1,4.52-3.72,30.44,30.44,0,0,0-2.14,4.62A31.25,31.25,0,0,0,46.83,46.74Z"/><path class="cls-4" d="M60.76,65.05a30.66,30.66,0,0,1-9.39,4.61,31.27,31.27,0,0,1-4.18-9.58,29.42,29.42,0,0,1-.91-7.56,31.42,31.42,0,0,1,.55-5.78,32.49,32.49,0,0,0,1.76,4.75,30.85,30.85,0,0,0,6.2,8.88A30.42,30.42,0,0,0,60.76,65.05Z"/><path class="cls-4" d="M73.92,59a31.52,31.52,0,0,1-3.4,9.93,31.4,31.4,0,0,1-9.74-3.84h0A31.32,31.32,0,0,1,51,55.83,29.28,29.28,0,0,0,55.68,58a28.36,28.36,0,0,0,4.88,1.34A30.75,30.75,0,0,0,73.92,59Z"/><path class="cls-4" d="M59.22,27.28a29.61,29.61,0,0,0-5.57,5.16,29.5,29.5,0,0,0-7.57.92,31.49,31.49,0,0,1,3.4-9.91A31.14,31.14,0,0,1,59.22,27.28Z"/><path class="cls-4" d="M73.73,39.81a30.8,30.8,0,0,1-.56,5.8,32.49,32.49,0,0,0-1.76-4.75.26.26,0,0,0,0-.08,12.56,12.56,0,0,0-7-6.42s0,0-.07,0h0a12.55,12.55,0,0,0-9.48.4.32.32,0,0,0-.09,0,29.83,29.83,0,0,0-4.39,2.49,28.31,28.31,0,0,1,3.34-4.8,29.61,29.61,0,0,1,5.57-5.16,31,31,0,0,1,9.41-4.63,31.7,31.7,0,0,1,4.18,9.6A30,30,0,0,1,73.73,39.81Z"/><path class="cls-4" d="M83.51,54.78A31,31,0,0,1,73.92,59a30.75,30.75,0,0,1-13.36.35,29.73,29.73,0,0,0,4.77-1.74,31.17,31.17,0,0,0,4.34-2.46A30.32,30.32,0,0,0,74.2,51.4v0a30.19,30.19,0,0,0,4.68-6A30.86,30.86,0,0,1,83.51,54.78Z"/><path class="cls-4" d="M53.65,32.44a28.31,28.31,0,0,0-3.34,4.8A30.75,30.75,0,0,0,45.79,41a29.16,29.16,0,0,0-4.66,6,31.12,31.12,0,0,1-4.64-9.42,30.73,30.73,0,0,1,9.59-4.17A29.5,29.5,0,0,1,53.65,32.44Z"/><path class="cls-4" d="M82.74,35.64a31,31,0,0,1-3.85,9.74v0a30.19,30.19,0,0,1-4.68,6v0a30.32,30.32,0,0,1-4.53,3.72,28.62,28.62,0,0,0,2.16-4.65,31.49,31.49,0,0,0,1.9-10.66,30,30,0,0,0-.92-7.56A31.25,31.25,0,0,1,82.74,35.64Z"/><path class="cls-4" d="M46.83,46.74a31.42,31.42,0,0,0-.55,5.78,29.42,29.42,0,0,0,.91,7.56,31.33,31.33,0,0,1-9.9-3.39A30.73,30.73,0,0,1,41.13,47a29.16,29.16,0,0,1,4.66-6,30.75,30.75,0,0,1,4.52-3.72,30.44,30.44,0,0,0-2.14,4.62A31.25,31.25,0,0,0,46.83,46.74Z"/><circle class="cls-5" cx="60" cy="46.16" r="12.11"/><path class="cls-6" d="M65.28,35.26c.94,8.54-5.73,15.81-14.13,19.15A12.11,12.11,0,1,0,65.28,35.26Z"/><path class="cls-1" d="M41.22,79.26l.33.21c.06,0,.18.15.34.31a2.07,2.07,0,0,1,.38.5,4.27,4.27,0,0,1,.24.7,3.63,3.63,0,0,1,.12,1,1.6,1.6,0,0,1-.49,1.12,3.64,3.64,0,0,1-1.09.81,4.73,4.73,0,0,1-1.13.36,2.17,2.17,0,0,1-.62,0,2,2,0,0,1-.49-.13,1.62,1.62,0,0,1-.35-.18l-.29-.22a.49.49,0,0,0,0,.26.45.45,0,0,1-.1.33.71.71,0,0,1-.34.14,6.63,6.63,0,0,1-1.38,0c-.69-.07-1-.19-1-.37,0,0,0-.51,0-1.43s0-1.86,0-2.82,0-1.89,0-2.79,0-1.44.05-1.6.3-.38.79-.45a5.27,5.27,0,0,1,1.43,0c.47.06.71.12.72.19v.28l.35-.2a3.57,3.57,0,0,1,2.5.11,2.42,2.42,0,0,1,1.33,1.83,1.27,1.27,0,0,1,0,.67,1.91,1.91,0,0,1-.29.57,4.21,4.21,0,0,1-.39.44,2.85,2.85,0,0,1-.33.31Q41.21,79.26,41.22,79.26Z"/><path class="cls-1" d="M38.31,82.19c0,.09.18.15.38.18a1.93,1.93,0,0,0,.63,0,1.47,1.47,0,0,0,.59-.24.47.47,0,0,0,.26-.37.74.74,0,0,0-.37-.67,1.42,1.42,0,0,0-.81-.23,1.15,1.15,0,0,0-.68.19.72.72,0,0,0-.13.56A1.43,1.43,0,0,0,38.31,82.19Z"/><path class="cls-1" d="M38.31,78.1a1.37,1.37,0,0,0,.55.07,1.89,1.89,0,0,0,.84-.2c.27-.13.35-.28.24-.46a1.28,1.28,0,0,0-.86-.57c-.4-.09-.66,0-.77.21a1,1,0,0,0-.1.48A.91.91,0,0,0,38.31,78.1Z"/><path class="cls-1" d="M47,74.94c2.35,0,3.52,1.64,3.52,4.9a6.06,6.06,0,0,1-.09,1.06,5.63,5.63,0,0,1-.25,1A3.49,3.49,0,0,1,49,83.52a3,3,0,0,1-.9.48,3.92,3.92,0,0,1-1.16.17,5.21,5.21,0,0,1-1-.09,3.27,3.27,0,0,1-.94-.37,2.6,2.6,0,0,1-.81-.7,3.36,3.36,0,0,1-.54-1.14,5.63,5.63,0,0,1-.22-1.67c0-.38,0-.74,0-1.07a8,8,0,0,1,.13-1,6.32,6.32,0,0,1,.26-1,4.24,4.24,0,0,1,.43-.85,2.43,2.43,0,0,1,.62-.69,2.9,2.9,0,0,1,.88-.44A3.78,3.78,0,0,1,47,74.94Z"/><path class="cls-1" d="M47.93,80.7a4.56,4.56,0,0,0,.16-1,4.23,4.23,0,0,0-.05-1,1.47,1.47,0,0,0-.32-.74.78.78,0,0,0-.62-.29.86.86,0,0,0-.65.31,1.8,1.8,0,0,0-.39.78,3.68,3.68,0,0,0-.1,1,3.76,3.76,0,0,0,.17,1,.87.87,0,0,0,.55.61.83.83,0,0,0,.76-.1A1.07,1.07,0,0,0,47.93,80.7Z"/><path class="cls-1" d="M60.79,75.28c0,.39,0,3.3-.13,8.73,0,.16-.19.27-.56.34a3,3,0,0,1-1.11,0c-.37-.07-.56-.19-.58-.36-.07-.5-.1-2.19-.1-5.06l-.53.64a10.18,10.18,0,0,1-.88.92,1.08,1.08,0,0,1-.62.32,1.37,1.37,0,0,1-.65-.24,3.24,3.24,0,0,1-.59-.48c-.16-.17-.35-.37-.57-.62A6.1,6.1,0,0,0,54,79a14.63,14.63,0,0,1,.19,2.54A13.78,13.78,0,0,1,54.09,84q0,.14-.6.24a3.91,3.91,0,0,1-1.13.07c-.37,0-.56-.12-.56-.26s0-.61,0-1.58,0-1.93-.06-2.9,0-1.91-.06-2.81,0-1.42,0-1.56.2-.43.53-.51a2.39,2.39,0,0,1,1.1,0,1.85,1.85,0,0,1,.87.37A6,6,0,0,1,55,76q.43.6.78,1.14a4.83,4.83,0,0,0,.48.67c.12-.17.26-.37.4-.61s.26-.45.37-.65a5.7,5.7,0,0,1,.36-.61,4.21,4.21,0,0,1,.4-.54,1.71,1.71,0,0,1,.47-.37,1.55,1.55,0,0,1,.6-.18h.24a5.06,5.06,0,0,1,1.24,0C60.64,74.89,60.79,75,60.79,75.28Z"/><path class="cls-1" d="M73.24,79.54a4.62,4.62,0,0,1-.42,1.73,5.35,5.35,0,0,1-1.07,1.56A5.18,5.18,0,0,1,70.05,84a5.37,5.37,0,0,1-2.15.44H67a2.76,2.76,0,0,1-.38,0l-.27-.08a.34.34,0,0,1-.2-.12.33.33,0,0,1-.07-.16c0-.17,0-.62,0-1.34s0-1.44,0-2.16,0-1.46,0-2.24,0-1.45,0-2a4.65,4.65,0,0,1,.12-1,.43.43,0,0,1,.12-.17.65.65,0,0,1,.16-.09l.22,0h.26l.33,0,.36,0C71.3,75.08,73.19,76.59,73.24,79.54Z"/><path class="cls-1" d="M70.67,79.82a1.3,1.3,0,0,0-.3-1.36A1.54,1.54,0,0,0,69,77.9a.78.78,0,0,0-.74.47,3.12,3.12,0,0,0-.09,1.22c0,.1,0,.26,0,.48s0,.41,0,.55a1.64,1.64,0,0,0,.09.44.51.51,0,0,0,.21.3c.19.12.45.08.78-.11a3.36,3.36,0,0,0,.89-.71A2.54,2.54,0,0,0,70.67,79.82Z"/><path class="cls-1" d="M76.91,84.22s-.19.07-.44.08a4.4,4.4,0,0,1-.73-.06c-.22,0-.49-.07-.8-.1l-.47,0-.06-.28a19.88,19.88,0,0,1-.17-2.32q-.09-2-.06-3a21.51,21.51,0,0,1,.21-3.33.27.27,0,0,1,.16-.14,6.25,6.25,0,0,1,.68,0l1,.06a1.92,1.92,0,0,1,.59.09s.07,1.28.08,3.71c0,1,0,1.94,0,2.81s0,1.42,0,1.64A1.84,1.84,0,0,1,76.91,84.22Z"/><path class="cls-1" d="M84.78,84c0,.12-.19.2-.56.25a4.43,4.43,0,0,1-1.15,0q-.58-.08-.63-.3c-.24-.93-.4-1.55-.51-1.85-.06-.15-.23-.23-.51-.25s-.43.07-.48.24-.22.71-.61,2c0,.12-.26.18-.66.21a6.06,6.06,0,0,1-1.21-.06c-.4-.07-.61-.15-.62-.27s.21-1.52.67-4a36.22,36.22,0,0,1,1-4.54q.14-.3.93-.42A5.23,5.23,0,0,1,82,75c.53.09.83.24.91.45.15.4.5,1.85,1,4.36S84.78,83.68,84.78,84Z"/><path class="cls-1" d="M81.74,79.74a8.91,8.91,0,0,0-.06-.91c-.05-.37-.1-.7-.16-1s-.1-.43-.14-.42-.19.29-.31.89a5.91,5.91,0,0,0-.15,1.43.24.24,0,0,0,.21.22.65.65,0,0,0,.41,0C81.67,79.87,81.74,79.81,81.74,79.74Z"/><path class="cls-1" d="M29.46,86.16c.22,0,.37.18.45.55a2.6,2.6,0,0,1,0,1.11c-.09.36-.23.55-.42.55a36,36,0,0,1-3.74,0,.35.35,0,0,0-.16,0,.23.23,0,0,0-.07.14,1.21,1.21,0,0,0,0,.19l0,.28c0,.12,0,.24,0,.33a17.14,17.14,0,0,1,3.77.1c.16,0,.23.35.21,1a2.12,2.12,0,0,1-.26,1.2,2,2,0,0,1-.68.06l-1.24,0a6.61,6.61,0,0,0-1.2,0c-.36.05-.55.15-.56.29,0,.3,0,.58,0,.84s0,.46,0,.6,0,.42,0,.8v1s-.08.09-.26.14a3.59,3.59,0,0,1-.64.08,4.7,4.7,0,0,1-.75,0,1.74,1.74,0,0,1-.65-.14c-.18-.08-.26-.18-.26-.32V86.73a.55.55,0,0,1,.28-.47A2,2,0,0,1,24,86c.33,0,.69-.07,1.08-.08s.81,0,1.26,0l1.25.08,1.1.09C29,86.14,29.3,86.16,29.46,86.16Z"/><path class="cls-1" d="M37.4,94.09a2.94,2.94,0,0,1-.14.77l-.09.24-.49.06a26.24,26.24,0,0,1-3.61.17H33a11.41,11.41,0,0,1-1.54-.09.69.69,0,0,1-.39-.46,0,0,0,0,0,0,0,2.24,2.24,0,0,1-.09-.6c0-.26,0-.94,0-2,0-1.55,0-2.65.08-3.29s.09-1.29.12-1.77a2.06,2.06,0,0,1,.15-.86A2.75,2.75,0,0,1,32.52,86q.91,0,1,.21a.57.57,0,0,0,.13.22.24.24,0,0,1,.07.18,3,3,0,0,1,0,.4c0,.32-.06,1.26-.08,2.81,0,1.26,0,2,0,2.35s.1.47.22.5a11.07,11.07,0,0,0,2.24.11c.53,0,.86,0,1,0a.3.3,0,0,1,.24.08C37.44,93,37.47,93.39,37.4,94.09Z"/><path class="cls-1" d="M41.48,86Q45,86,45,90.94A6.23,6.23,0,0,1,44.91,92a6.52,6.52,0,0,1-.25,1,3.45,3.45,0,0,1-.45.9,3.56,3.56,0,0,1-.67.72,2.63,2.63,0,0,1-.91.48,3.51,3.51,0,0,1-1.15.17,5.21,5.21,0,0,1-1-.09,3,3,0,0,1-.94-.37,2.7,2.7,0,0,1-.81-.69A3.52,3.52,0,0,1,38.2,93,5.56,5.56,0,0,1,38,91.3c0-.38,0-.74,0-1.07a7.92,7.92,0,0,1,.13-1,5.5,5.5,0,0,1,.26-1,4,4,0,0,1,.42-.86,2.79,2.79,0,0,1,.63-.69,3.15,3.15,0,0,1,.88-.44A3.74,3.74,0,0,1,41.48,86Z"/><path class="cls-1" d="M42.43,91.79a4.47,4.47,0,0,0,.16-1,4.17,4.17,0,0,0-.05-.95,1.43,1.43,0,0,0-.32-.74.76.76,0,0,0-.62-.3.85.85,0,0,0-.65.32,1.69,1.69,0,0,0-.39.78,3.65,3.65,0,0,0-.1,1,3.49,3.49,0,0,0,.17,1,.89.89,0,0,0,.55.61.86.86,0,0,0,.76-.1A1.12,1.12,0,0,0,42.43,91.79Z"/><path class="cls-1" d="M52.17,91.18a2.72,2.72,0,0,1-2.18.53l.94.25c.4.11.71.19.92.26a4.7,4.7,0,0,1,.74.28,3.84,3.84,0,0,1,.75.42.38.38,0,0,1,.12.27,1.59,1.59,0,0,1,0,.42c0,.16-.08.33-.13.52a2.91,2.91,0,0,1-.22.51,3,3,0,0,1-.26.44,1,1,0,0,1-.27.27.25.25,0,0,1-.26,0c-.28-.14-.85-.38-1.7-.72S49.21,94.1,49,94c0,.47,0,.89,0,1.27q0,.18-.69.27a4.91,4.91,0,0,1-1.38,0c-.47-.06-.71-.19-.73-.38-.06-.58-.09-2.06-.09-4.42s0-3.81.09-4.34c0-.16.21-.27.59-.35A4.63,4.63,0,0,1,48,86a2.14,2.14,0,0,1,.9.2.22.22,0,0,1,.13.12.51.51,0,0,1,0,.12v.2c0,.11,0,.17,0,.2l.79-.29.78-.23a2.93,2.93,0,0,1,.93-.11,1.93,1.93,0,0,1,.73.2,1.67,1.67,0,0,1,.77.76,2.39,2.39,0,0,1,.26,1.08,4.83,4.83,0,0,1-.15,1.18,3.73,3.73,0,0,1-.42,1.07A2.32,2.32,0,0,1,52.17,91.18Z"/><path class="cls-1" d="M49,89.66c0,.23.25.23.77,0a3.15,3.15,0,0,0,1.2-.86.48.48,0,0,0,.13-.3c0-.24-.21-.31-.63-.2a2.46,2.46,0,0,0-1.21.7A.86.86,0,0,0,49,89.66Z"/><path class="cls-1" d="M65.58,90.63a4.53,4.53,0,0,1-.42,1.73,5.54,5.54,0,0,1-1.07,1.57,5.38,5.38,0,0,1-1.69,1.13,5.28,5.28,0,0,1-2.16.44h-.51l-.41,0a1.81,1.81,0,0,1-.38,0l-.27-.07a.34.34,0,0,1-.2-.12.36.36,0,0,1-.07-.17c0-.17,0-.61,0-1.34s0-1.44-.05-2.15,0-1.47,0-2.25,0-1.44,0-2a4.78,4.78,0,0,1,.12-1,.43.43,0,0,1,.12-.17l.16-.08a.69.69,0,0,1,.22,0h.26l.33,0h.36C63.64,86.17,65.53,87.68,65.58,90.63Z"/><path class="cls-1" d="M63,90.91a1.3,1.3,0,0,0-.3-1.36A1.56,1.56,0,0,0,61.33,89a.78.78,0,0,0-.74.48,2.92,2.92,0,0,0-.08,1.21c0,.1,0,.26,0,.48s0,.41,0,.56a1.41,1.41,0,0,0,.08.44.51.51,0,0,0,.21.29.75.75,0,0,0,.78-.1,3.57,3.57,0,0,0,.89-.71A2.43,2.43,0,0,0,63,90.91Z"/><path class="cls-1" d="M69.8,86q3.51,0,3.51,4.9A7.45,7.45,0,0,1,73.23,92,6.54,6.54,0,0,1,73,93a3.45,3.45,0,0,1-.45.9,3.07,3.07,0,0,1-.67.72,2.59,2.59,0,0,1-.9.48,3.55,3.55,0,0,1-1.15.17,5.06,5.06,0,0,1-1-.09,2.92,2.92,0,0,1-.94-.37,2.7,2.7,0,0,1-.81-.69A3.33,3.33,0,0,1,66.51,93a5.93,5.93,0,0,1-.21-1.66c0-.38,0-.74,0-1.07a10,10,0,0,1,.13-1,7.89,7.89,0,0,1,.26-1,4.07,4.07,0,0,1,.43-.86,2.76,2.76,0,0,1,.62-.69,3.29,3.29,0,0,1,.88-.44A3.81,3.81,0,0,1,69.8,86Z"/><path class="cls-1" d="M70.74,91.79a4.47,4.47,0,0,0,.16-1,4.86,4.86,0,0,0,0-.95,1.52,1.52,0,0,0-.32-.74.78.78,0,0,0-.62-.3.87.87,0,0,0-.66.32,1.91,1.91,0,0,0-.39.78,4.07,4.07,0,0,0-.1,1A3.49,3.49,0,0,0,69,92a.87.87,0,0,0,.55.61.86.86,0,0,0,.76-.1A1.15,1.15,0,0,0,70.74,91.79Z"/><path class="cls-1" d="M85.53,90.63a4.53,4.53,0,0,1-.42,1.73A5.54,5.54,0,0,1,84,93.93a5.27,5.27,0,0,1-1.69,1.13,5.22,5.22,0,0,1-2.16.44h-.5l-.42,0a1.7,1.7,0,0,1-.37,0l-.28-.07a.43.43,0,0,1-.2-.12.49.49,0,0,1-.06-.17c0-.17,0-.61,0-1.34s0-1.44,0-2.15,0-1.47,0-2.25,0-1.44,0-2a3.72,3.72,0,0,1,.12-1,.3.3,0,0,1,.12-.17.48.48,0,0,1,.16-.08.61.61,0,0,1,.22,0h.26l.32,0h.37C83.59,86.17,85.49,87.68,85.53,90.63Z"/><path class="cls-1" d="M83,90.91a1.3,1.3,0,0,0-.3-1.36A1.54,1.54,0,0,0,81.29,89a.77.77,0,0,0-.74.48,2.89,2.89,0,0,0-.09,1.21c0,.1,0,.26,0,.48s0,.41,0,.56a1.81,1.81,0,0,0,.09.44.5.5,0,0,0,.2.29.76.76,0,0,0,.79-.1,3.52,3.52,0,0,0,.88-.71A2.25,2.25,0,0,0,83,90.91Z"/><path class="cls-1" d="M89.21,95.32a.85.85,0,0,1-.44.07,3.54,3.54,0,0,1-.73-.06,7.46,7.46,0,0,0-.8-.09l-.47,0-.07-.28c0-.23-.1-1-.16-2.33s-.08-2.31-.06-3a21.51,21.51,0,0,1,.21-3.33.26.26,0,0,1,.16-.13,5.4,5.4,0,0,1,.67,0l1,.06a2.22,2.22,0,0,1,.58.09s.07,1.28.08,3.72c0,1,0,1.93,0,2.8s0,1.42,0,1.64A1.87,1.87,0,0,1,89.21,95.32Z"/><path class="cls-1" d="M97.07,95.08c0,.11-.18.19-.55.24a4.43,4.43,0,0,1-1.15,0c-.39,0-.6-.14-.64-.3-.23-.93-.4-1.54-.51-1.85-.06-.15-.23-.23-.5-.24s-.44.06-.48.23-.22.72-.61,2c0,.12-.26.19-.67.21a6.1,6.1,0,0,1-1.21-.06c-.4-.06-.6-.15-.61-.27s.2-1.52.66-4a34.66,34.66,0,0,1,1-4.53c.08-.21.39-.35.92-.43a4.93,4.93,0,0,1,1.58,0c.53.08.84.23.92.44.15.4.49,1.86,1,4.36S97.07,94.78,97.07,95.08Z"/><path class="cls-1" d="M94,90.83a6.87,6.87,0,0,0-.07-.9c0-.38-.09-.71-.15-1s-.11-.42-.14-.42-.19.29-.31.89a6.7,6.7,0,0,0-.16,1.43c0,.12.08.19.22.22a.69.69,0,0,0,.4,0C94,91,94,90.9,94,90.83Z"/></g></svg>