<?xml version="1.0" encoding="utf-8"?>
<!-- Generator: Adobe Illustrator 25.0.0, SVG Export Plug-In . SVG Version: 6.00 Build 0)  -->
<svg version="1.1" xmlns="http://www.w3.org/2000/svg" xmlns:xlink="http://www.w3.org/1999/xlink" x="0px" y="0px"
	 viewBox="0 0 120 120" style="enable-background:new 0 0 120 120;" xml:space="preserve">
<style type="text/css">
	.st0{fill:#004CE8;}
	.st1{fill:#0065F4;}
	.st2{fill:#FFFFFF;}
	.st3{clip-path:url(#SVGID_1_);fill:#EBEBEB;}
</style>
<g id="Camada_1">
</g>
<g id="Camada_3">
	<g>
		<g>
			<path class="st0" d="M91.5,103.6c-10.4,2.7-20.9,5.3-31.3,8c-10.6-2.9-21.1-5.8-31.7-8.6c-2.4-26.1-4.7-52.2-7.1-78.3
				c25.7,0,51.3-0.1,77-0.1C96.2,50.9,93.8,77.2,91.5,103.6z"/>
			<polygon class="st1" points="60,30.6 91.5,30.6 85.2,98.3 60.4,105.1 			"/>
		</g>
		<g>
			<path class="st2" d="M35.1,41.5l1,9.9l37.7,0.1l-0.7,10H36.9l1.1,10h34.1L71.2,84l-10.9,3.4c-3.7-1.2-7.4-2.4-11.1-3.6
				c-0.2-2.4-0.4-4.9-0.6-7.3c-3.5,0-6.9,0-10.4,0.1L39.7,92l20.6,5.8l20.4-5.6l4.5-50.7L35.1,41.5z"/>
			<g>
				<defs>
					<path id="SVGID_3_" d="M35.1,41.5l1,9.9l37.7,0.1l-0.7,10H36.9l1.1,10h34.1L71.2,84l-10.9,3.4c-3.7-1.2-7.4-2.4-11.1-3.6
						c-0.2-2.4-0.4-4.9-0.6-7.3c-3.5,0-6.9,0-10.4,0.1L39.7,92l20.6,5.8l20.4-5.6l4.5-50.7L35.1,41.5z"/>
				</defs>
				<clipPath id="SVGID_1_">
					<use xlink:href="#SVGID_3_"  style="overflow:visible;"/>
				</clipPath>
				<rect x="30.1" y="36.8" class="st3" width="30.2" height="66.6"/>
			</g>
		</g>
	</g>
	<g>
		<polygon class="st2" points="51.9,7 51.9,12.1 45.1,12.1 45.1,16.8 51.9,16.8 51.9,21.8 40,21.8 40,7 		"/>
		<path class="st2" d="M66,11.2V7c-4,0-8,0-12,0c0,3.1,0,6.2,0,9.3h7.8v1.9h-7.7c0,1.3,0,2.5,0,3.8h12v-9.8h-6.8v-0.9H66z"/>
		<path class="st2" d="M80,11.2V7c-4,0-8,0-12,0c0,3.1,0,6.3,0,9.4h7.7v1.9H68c0,1.2,0,2.4,0,3.6h12v-9.8h-6.8v-0.9H80z"/>
	</g>
</g>
</svg>
