<?xml version="1.0" encoding="utf-8"?>
<!-- Generator: Adobe Illustrator 25.0.0, SVG Export Plug-In . SVG Version: 6.00 Build 0)  -->
<svg version="1.1" xmlns="http://www.w3.org/2000/svg" xmlns:xlink="http://www.w3.org/1999/xlink" x="0px" y="0px"
	 viewBox="0 0 120 120" style="enable-background:new 0 0 120 120;" xml:space="preserve">
<style type="text/css">
	.st0{fill:#FF4C1E;}
	.st1{fill:#FF651E;}
	.st2{fill:#EBEBEB;}
	.st3{fill:#FFFFFF;}
</style>
<g id="Camada_3">
</g>
<g id="Camada_4">
	<g>
		<path class="st0" d="M91.3,106.2c-10.4,2.7-20.9,5.3-31.3,8c-10.6-2.9-21.1-5.8-31.7-8.6c-2.4-26.1-4.7-52.2-7.1-78.3
			c25.7,0,51.3-0.1,77-0.1C96,53.5,93.7,79.8,91.3,106.2z"/>
		<polygon class="st1" points="59.9,33.1 91.4,33.1 85.1,100.9 60.2,107.7 		"/>
		<g>
			<path class="st2" d="M84.7,43.2c-0.4,3.2-0.8,6.4-1.2,9.7c-12.1,0-24.2,0-36.3,0l0.7,9.5H83l-2.4,29.6l-19.7,5.4L40.6,92
				l-1.3-15.1c3.3,0,6.6-0.1,10-0.1c0.1,2.6,0.1,5.2,0.2,7.8c1.9,0.5,3.7,1,5.6,1.5c1.9,0.5,3.7,1,5.6,1.5c3.4-1,6.7-1.9,10.1-2.9
				c0.2-1.9,0.3-3.9,0.5-5.8c0.2-2.1,0.3-4.2,0.5-6.3c-11-0.1-22.1-0.2-33.1-0.3L36.5,43L84.7,43.2z"/>
			<g>
				<path class="st3" d="M80.6,91.9l2.4-29.6H60.7l0,10c3.8,0,7.6,0.1,11.4,0.1c-0.2,2.2-0.3,4.3-0.5,6.5c-0.2,1.7-0.4,3.3-0.6,5
					c-3.4,1.2-6.8,2.3-10.2,3.5l0,9.9l0,0L80.6,91.9z"/>
				<path class="st3" d="M60.7,52.8c7.6,0,15.2,0,22.8,0.1c0.4-3.2,0.8-6.4,1.2-9.7l-24-0.1L60.7,52.8z"/>
			</g>
		</g>
	</g>
	<g>
		<path class="st3" d="M28.6,20.6h5.1v-5.1h4.1v5H43V5.7h-5.1v4.6h-4.3V5.7c-1.7,0-3.5,0-5.2,0C28.4,10.7,28.5,15.6,28.6,20.6z"/>
		<polygon class="st3" points="49.4,20.5 54.4,20.5 54.4,10.8 58.6,10.8 58.6,5.7 44.8,5.7 44.8,10.9 49.4,10.9 		"/>
		<path class="st3" d="M60.3,20.6V5.8h5.4c1.1,1.7,2.1,3.4,3.2,5.1c1-1.7,2.1-3.4,3.1-5.1h5.2v14.9h-5v-6.8l-3.3,4.4l-3.6-4.8v7
			H60.3z"/>
		<path class="st3" d="M79.4,5.8c1.7,0,3.4,0,5.1,0v9.7h6.8v5.1H79.4C79.4,15.6,79.4,10.7,79.4,5.8z"/>
	</g>
</g>
</svg>
