<svg id="Camada_3" data-name="Camada 3" xmlns="http://www.w3.org/2000/svg" xmlns:xlink="http://www.w3.org/1999/xlink" viewBox="0 0 120 120"><defs><style>.cls-1{font-size:21px;fill:#dadada;font-family:Pirate-of-the-Seaside-Bubbles, Pirate of the Seaside Bubbles;}.cls-2{fill:#6eefae;}.cls-3{fill:url(#Gradiente_sem_nome_10);}.cls-4{fill:url(#Gradiente_sem_nome_10-2);}.cls-5{fill:url(#Gradiente_sem_nome_10-3);}.cls-6{fill:url(#Gradiente_sem_nome_10-4);}.cls-7{fill:url(#Gradiente_sem_nome_10-5);}.cls-8{fill:url(#Gradiente_sem_nome_10-6);}.cls-9{fill:url(#Gradiente_sem_nome_10-7);}.cls-10{fill:url(#Gradiente_sem_nome_10-8);}.cls-11,.cls-12,.cls-13,.cls-14,.cls-15,.cls-16,.cls-17,.cls-24,.cls-25,.cls-26,.cls-27,.cls-28,.cls-29,.cls-30{fill:none;stroke-miterlimit:10;stroke-width:2px;}.cls-11{stroke:url(#Gradiente_sem_nome_10-9);}.cls-12{stroke:url(#Gradiente_sem_nome_10-10);}.cls-13{stroke:url(#Gradiente_sem_nome_10-11);}.cls-14{stroke:url(#Gradiente_sem_nome_10-12);}.cls-15{stroke:url(#Gradiente_sem_nome_10-13);}.cls-16{stroke:url(#Gradiente_sem_nome_10-14);}.cls-17{stroke:url(#Gradiente_sem_nome_10-15);}.cls-18{fill:url(#Gradiente_sem_nome_13);}.cls-19{fill:#f19444;}.cls-20{fill:url(#Gradiente_sem_nome_12);}.cls-21{fill:url(#Gradiente_sem_nome_14);}.cls-22{fill:#02a676;}.cls-23{fill:url(#Gradiente_sem_nome_16);}.cls-24{stroke:url(#Gradiente_sem_nome_10-16);}.cls-25{stroke:url(#Gradiente_sem_nome_10-17);}.cls-26{stroke:url(#Gradiente_sem_nome_10-18);}.cls-27{stroke:url(#Gradiente_sem_nome_10-19);}.cls-28{stroke:url(#Gradiente_sem_nome_10-20);}.cls-29{stroke:url(#Gradiente_sem_nome_10-21);}.cls-30{stroke:url(#Gradiente_sem_nome_10-22);}.cls-31{fill:url(#Gradiente_sem_nome_13-2);}.cls-32{fill:url(#Gradiente_sem_nome_12-2);}.cls-33{fill:url(#Gradiente_sem_nome_14-2);}.cls-34{fill:url(#Gradiente_sem_nome_5);}</style><linearGradient id="Gradiente_sem_nome_10" x1="61.97" y1="68.09" x2="61.97" y2="81.08" gradientUnits="userSpaceOnUse"><stop offset="0" stop-color="#ff9c48"/><stop offset="1" stop-color="#7f4e24"/></linearGradient><linearGradient id="Gradiente_sem_nome_10-2" x1="66.41" y1="64.91" x2="66.41" y2="80.06" xlink:href="#Gradiente_sem_nome_10"/><linearGradient id="Gradiente_sem_nome_10-3" x1="48.73" y1="67.3" x2="48.73" y2="79.23" xlink:href="#Gradiente_sem_nome_10"/><linearGradient id="Gradiente_sem_nome_10-4" x1="57.29" y1="67" x2="57.29" y2="80.56" xlink:href="#Gradiente_sem_nome_10"/><linearGradient id="Gradiente_sem_nome_10-5" x1="52.71" y1="66.54" x2="52.71" y2="81.25" xlink:href="#Gradiente_sem_nome_10"/><linearGradient id="Gradiente_sem_nome_10-6" x1="45.29" y1="66.24" x2="45.29" y2="75.95" xlink:href="#Gradiente_sem_nome_10"/><linearGradient id="Gradiente_sem_nome_10-7" x1="75.45" y1="64.35" x2="75.45" y2="79.78" xlink:href="#Gradiente_sem_nome_10"/><linearGradient id="Gradiente_sem_nome_10-8" x1="70.78" y1="66.83" x2="70.78" y2="80.37" xlink:href="#Gradiente_sem_nome_10"/><linearGradient id="Gradiente_sem_nome_10-9" x1="15.65" y1="60.65" x2="21.59" y2="60.65" xlink:href="#Gradiente_sem_nome_10"/><linearGradient id="Gradiente_sem_nome_10-10" x1="13.09" y1="72.17" x2="26.62" y2="72.17" xlink:href="#Gradiente_sem_nome_10"/><linearGradient id="Gradiente_sem_nome_10-11" x1="11.92" y1="68.55" x2="44.05" y2="68.55" xlink:href="#Gradiente_sem_nome_10"/><linearGradient id="Gradiente_sem_nome_10-12" x1="24.61" y1="50.75" x2="30.56" y2="50.75" xlink:href="#Gradiente_sem_nome_10"/><linearGradient id="Gradiente_sem_nome_10-13" x1="9.53" y1="48.76" x2="18.65" y2="48.76" xlink:href="#Gradiente_sem_nome_10"/><linearGradient id="Gradiente_sem_nome_10-14" x1="25.07" y1="61.81" x2="34.31" y2="61.81" xlink:href="#Gradiente_sem_nome_10"/><linearGradient id="Gradiente_sem_nome_10-15" x1="16.73" y1="57.49" x2="44.22" y2="57.49" xlink:href="#Gradiente_sem_nome_10"/><linearGradient id="Gradiente_sem_nome_13" x1="42.1" y1="78.76" x2="44.22" y2="78.76" gradientUnits="userSpaceOnUse"><stop offset="0" stop-color="#ff9c48"/><stop offset="0" stop-color="#7f4e24"/></linearGradient><linearGradient id="Gradiente_sem_nome_12" x1="11.26" y1="48.91" x2="9.7" y2="50.54" xlink:href="#Gradiente_sem_nome_10"/><linearGradient id="Gradiente_sem_nome_14" x1="28.04" y1="46.69" x2="25.77" y2="46.33" gradientUnits="userSpaceOnUse"><stop offset="0" stop-color="#7f4e24"/><stop offset="1" stop-color="#ff9c48"/></linearGradient><linearGradient id="Gradiente_sem_nome_16" x1="66.64" y1="41.27" x2="36.94" y2="70.77" gradientUnits="userSpaceOnUse"><stop offset="0" stop-color="#02a676"/><stop offset="0.75" stop-color="#005a5b"/></linearGradient><linearGradient id="Gradiente_sem_nome_10-16" x1="49.69" y1="60.16" x2="55.64" y2="60.16" gradientTransform="matrix(-1, 0, 0, 1, 154.25, 0)" xlink:href="#Gradiente_sem_nome_10"/><linearGradient id="Gradiente_sem_nome_10-17" x1="47.14" y1="71.68" x2="60.67" y2="71.68" gradientTransform="matrix(-1, 0, 0, 1, 154.25, 0)" xlink:href="#Gradiente_sem_nome_10"/><linearGradient id="Gradiente_sem_nome_10-18" x1="45.96" y1="68.05" x2="78.1" y2="68.05" gradientTransform="matrix(-1, 0, 0, 1, 154.25, 0)" xlink:href="#Gradiente_sem_nome_10"/><linearGradient id="Gradiente_sem_nome_10-19" x1="58.66" y1="50.25" x2="64.61" y2="50.25" gradientTransform="matrix(-1, 0, 0, 1, 154.25, 0)" xlink:href="#Gradiente_sem_nome_10"/><linearGradient id="Gradiente_sem_nome_10-20" x1="43.58" y1="48.26" x2="52.7" y2="48.26" gradientTransform="matrix(-1, 0, 0, 1, 154.25, 0)" xlink:href="#Gradiente_sem_nome_10"/><linearGradient id="Gradiente_sem_nome_10-21" x1="59.12" y1="61.31" x2="68.36" y2="61.31" gradientTransform="matrix(-1, 0, 0, 1, 154.25, 0)" xlink:href="#Gradiente_sem_nome_10"/><linearGradient id="Gradiente_sem_nome_10-22" x1="50.77" y1="57" x2="78.26" y2="57" gradientTransform="matrix(-1, 0, 0, 1, 154.25, 0)" xlink:href="#Gradiente_sem_nome_10"/><linearGradient id="Gradiente_sem_nome_13-2" x1="76.14" y1="78.26" x2="78.27" y2="78.26" gradientTransform="matrix(-1, 0, 0, 1, 154.25, 0)" xlink:href="#Gradiente_sem_nome_13"/><linearGradient id="Gradiente_sem_nome_12-2" x1="45.3" y1="48.41" x2="43.74" y2="50.04" gradientTransform="matrix(-1, 0, 0, 1, 154.25, 0)" xlink:href="#Gradiente_sem_nome_10"/><linearGradient id="Gradiente_sem_nome_14-2" x1="62.08" y1="46.19" x2="59.82" y2="45.83" gradientTransform="matrix(-1, 0, 0, 1, 154.25, 0)" xlink:href="#Gradiente_sem_nome_14"/><linearGradient id="Gradiente_sem_nome_5" x1="65.45" y1="31.33" x2="75.05" y2="24.65" gradientUnits="userSpaceOnUse"><stop offset="0" stop-color="#02a676"/><stop offset="1" stop-color="#007369"/></linearGradient></defs><text class="cls-1" transform="translate(14.05 92.54)">Sugary<tspan class="cls-2" x="59.77" y="0" xml:space="preserve"> Eco</tspan></text><path class="cls-3" d="M61.63,65.47a9.88,9.88,0,0,1-1.3-.08q-.11,7.27-.2,14.55c1.22,0,2.45,0,3.68,0V65.21A8.23,8.23,0,0,1,61.63,65.47Z"/><path class="cls-4" d="M68.14,62.21a7.75,7.75,0,0,1-2.23,2.11,7.65,7.65,0,0,1-1.32.65l-.21,14.94,1.55,0,2.52-.09V62.5Z"/><path class="cls-5" d="M48.48,64.38A6.78,6.78,0,0,1,47,64l1.24,15.08h0l2.25.7V64.41A7.53,7.53,0,0,1,48.48,64.38Z"/><path class="cls-6" d="M56.84,63.87a6.21,6.21,0,0,1-1.53-2.17l0,0Q55.16,70.85,55,80c1.5,0,3,0,4.52,0V65.26A6.06,6.06,0,0,1,56.84,63.87Z"/><path class="cls-7" d="M52.63,63.81a6.89,6.89,0,0,1-1.5.49l-.21,15.55a14.34,14.34,0,0,0,2.41.11h1.16V62.57A7.32,7.32,0,0,1,52.63,63.81Z"/><path class="cls-8" d="M42.74,60.55c1.81,11.67,2.95,15.71,3.7,16.66,0,.05,1.4,1.79,1.4,1.79h0q-.73-7.64-1.49-15.27A9.21,9.21,0,0,1,42.74,60.55Z"/><path class="cls-9" d="M73.69,64.07l-.34,0-.21,14.77q.23-.16.45-.36c1.27-1.16,1.61-2.65,2-4.76.65-3.21,1.41-7.3,2.13-12.13A6.94,6.94,0,0,1,73.69,64.07Z"/><path class="cls-10" d="M71.27,64a6.18,6.18,0,0,1-2-.89Q69.1,71.44,69,79.75a10.35,10.35,0,0,0,3.58-.57v-15A6,6,0,0,1,71.27,64Z"/><path class="cls-11" d="M17,65.65c-.61-1.76-.37-2.61,0-3.06.6-.75,1.54-.41,2.55-1.36a3.11,3.11,0,0,0,1-2.21,3.35,3.35,0,0,0-2.72-2.73"/><path class="cls-12" d="M25.67,67.86c-.49,1.5-1.35,3.34-3,3.83-2.14.66-3.86-1.63-5.74-1-1.06.34-2.29,1.65-2.89,6"/><path class="cls-13" d="M43.17,78.84c-4.37-8.08-8.73-10.49-12.08-11.07-4.36-.75-7.18,1.54-11.07,0s-6-6-7.14-9.7"/><path class="cls-14" d="M26,55.75c-.61-1.76-.36-2.61,0-3.06.61-.76,1.55-.42,2.56-1.37a3.11,3.11,0,0,0,1-2.21,3.37,3.37,0,0,0-2.73-2.72"/><path class="cls-15" d="M18.29,49.76a3.09,3.09,0,0,1-2.56.08c-1.12-.61-1-2-1.83-2.35-.6-.23-1.64.09-3.62,2.3"/><path class="cls-16" d="M33.84,62.39a3.11,3.11,0,0,1-2.54.39c-1.17-.47-1.23-1.87-2.09-2.1-.62-.17-1.62.28-3.32,2.72"/><path class="cls-17" d="M43.26,78.9C39.47,65.82,33.58,60,28.62,57.11,24.48,54.72,20.14,53.9,18.41,50c-1.91-4.33.57-9.67,3.06-13.61"/><path class="cls-18" d="M44.22,78.76a1.11,1.11,0,0,1-.63,1.08,1.21,1.21,0,0,1-1.49-1.08,1.12,1.12,0,0,1,1.06-1.13A1.15,1.15,0,0,1,44.22,78.76Z"/><path class="cls-19" d="M20.42,36.28a1.13,1.13,0,0,0,.64,1.08,1.23,1.23,0,0,0,1.49-1.08,1.14,1.14,0,0,0-1.06-1.14A1.16,1.16,0,0,0,20.42,36.28Z"/><path class="cls-20" d="M9.49,49.8a1.09,1.09,0,0,0,.74,1,1.21,1.21,0,0,0,1.37-1.23,1.12,1.12,0,0,0-1.17-1A1.16,1.16,0,0,0,9.49,49.8Z"/><path class="cls-21" d="M25.64,46.47a1.11,1.11,0,0,0,.63,1.08,1.21,1.21,0,0,0,1.49-1.08,1.11,1.11,0,0,0-1.06-1.13A1.14,1.14,0,0,0,25.64,46.47Z"/><ellipse class="cls-22" cx="24.14" cy="33.86" rx="4.26" ry="1.32" transform="translate(-16.97 27.64) rotate(-45.9)"/><ellipse class="cls-22" cx="22.75" cy="40.09" rx="3.67" ry="1.14" transform="translate(-14.14 12.45) rotate(-23.59)"/><ellipse class="cls-22" cx="15.43" cy="41.38" rx="1.23" ry="3.96" transform="translate(-18.8 13.48) rotate(-30.38)"/><ellipse class="cls-22" cx="11.26" cy="44.81" rx="0.85" ry="2.75" transform="matrix(0.6, -0.8, 0.8, 0.6, -31.4, 27.06)"/><ellipse class="cls-22" cx="22.96" cy="47.94" rx="4.2" ry="1.3" transform="translate(-29.65 40.32) rotate(-56.17)"/><ellipse class="cls-22" cx="32.11" cy="46.64" rx="3.29" ry="1.02" transform="matrix(0.52, -0.85, 0.85, 0.52, -24.42, 49.89)"/><ellipse class="cls-22" cx="32.01" cy="55.43" rx="0.99" ry="3.2" transform="translate(-10.28 7.38) rotate(-11.35)"/><ellipse class="cls-22" cx="13.19" cy="50.93" rx="2.38" ry="0.74" transform="translate(-24.86 14.6) rotate(-31.81)"/><ellipse class="cls-22" cx="7.16" cy="49.73" rx="3.73" ry="1.15" transform="translate(-2.63 0.45) rotate(-3.05)"/><ellipse class="cls-22" cx="26.08" cy="49.88" rx="0.82" ry="2.66" transform="translate(-21.51 19.82) rotate(-30.12)"/><ellipse class="cls-22" cx="37.59" cy="61.23" rx="3.05" ry="0.94" transform="translate(-28.17 90.15) rotate(-82.2)"/><ellipse class="cls-22" cx="36.29" cy="66.99" rx="0.81" ry="2.62" transform="matrix(0.32, -0.95, 0.95, 0.32, -38.81, 79.83)"/><ellipse class="cls-22" cx="27.49" cy="59.27" rx="0.68" ry="2.2" transform="translate(-37.84 58.27) rotate(-64.24)"/><ellipse class="cls-22" cx="30.07" cy="64.43" rx="2.2" ry="0.68" transform="translate(-25.22 19.73) rotate(-26.03)"/><ellipse class="cls-22" cx="25.13" cy="63.29" rx="2.63" ry="0.81"/><ellipse class="cls-22" cx="41.86" cy="69.64" rx="2.2" ry="0.68" transform="translate(-33.4 100.26) rotate(-81.13)"/><ellipse class="cls-22" cx="22.63" cy="58.41" rx="2.01" ry="0.62" transform="translate(-39.61 51.37) rotate(-62.37)"/><ellipse class="cls-22" cx="17.5" cy="60.42" rx="2.01" ry="0.62" transform="translate(-45.24 64.92) rotate(-77.95)"/><ellipse class="cls-22" cx="17.01" cy="56.27" rx="2.69" ry="0.83" transform="translate(-4.2 1.45) rotate(-4.33)"/><ellipse class="cls-22" cx="22.4" cy="66.75" rx="0.62" ry="2.01" transform="translate(-47.18 56) rotate(-62.66)"/><ellipse class="cls-22" cx="15.19" cy="67.38" rx="0.89" ry="2.86" transform="translate(-53.35 75.94) rotate(-84.42)"/><ellipse class="cls-22" cx="10.99" cy="60.84" rx="1.1" ry="3.55" transform="translate(-48.1 42.67) rotate(-62.66)"/><ellipse class="cls-22" cx="29.46" cy="70.69" rx="2.71" ry="0.84" transform="translate(-37.52 33.57) rotate(-38.38)"/><ellipse class="cls-22" cx="32.29" cy="66.3" rx="0.62" ry="2.01" transform="translate(-28.65 24.77) rotate(-29.76)"/><ellipse class="cls-22" cx="12.69" cy="56.14" rx="1.1" ry="3.55"/><ellipse class="cls-22" cx="36.42" cy="73.14" rx="2.71" ry="0.84" transform="matrix(1, -0.04, 0.04, 1, -2.61, 1.36)"/><ellipse class="cls-22" cx="14.5" cy="78.61" rx="1.02" ry="3.3" transform="translate(-22.81 7.91) rotate(-17.37)"/><ellipse class="cls-22" cx="18.77" cy="74.48" rx="2.71" ry="0.84" transform="translate(-55.02 53.16) rotate(-59.74)"/><ellipse class="cls-22" cx="12.44" cy="73.94" rx="2.71" ry="0.84" transform="translate(-19.36 6.04) rotate(-15.54)"/><path class="cls-23" d="M80.64,52.94a6.8,6.8,0,0,1-.46,3.86,8.34,8.34,0,0,1-7.42,5.45A8.12,8.12,0,0,1,68,60.84a8.1,8.1,0,0,1-12.74,0A8.1,8.1,0,0,1,42.18,58a8.12,8.12,0,0,1-1.87-14,7.91,7.91,0,0,1-.05-5.46,8.22,8.22,0,0,1,3.48-4.23,7.79,7.79,0,0,1,7-.73,9.65,9.65,0,0,1,4.34-5.73c3.26-1.82,7.86-1.45,8.78.37.48.94-.5,1.73-.59,4.94,0,1.21-.06,2.37.51,2.64s1.16-.78,3.1-1.66a10.45,10.45,0,0,1,4.3-.89,5.9,5.9,0,0,1,2,.17,6.68,6.68,0,0,1,4,4.53,6.37,6.37,0,0,1,.29,2.14s0,.08,0,.12a8.12,8.12,0,0,1,3.23,12.74Z"/><path class="cls-24" d="M103.19,65.16c.61-1.77.36-2.62,0-3.07-.61-.75-1.55-.41-2.56-1.36a3.15,3.15,0,0,1-1-2.21,3.35,3.35,0,0,1,2.73-2.72"/><path class="cls-25" d="M94.53,67.36c.49,1.5,1.36,3.34,3,3.83,2.14.66,3.86-1.63,5.74-1,1.07.35,2.3,1.65,2.89,6"/><path class="cls-26" d="M77,78.34c4.37-8.07,8.73-10.48,12.09-11.07,4.35-.75,7.18,1.55,11.06,0s6-6,7.15-9.7"/><path class="cls-27" d="M94.22,55.25c.61-1.76.36-2.61,0-3.06-.6-.75-1.54-.41-2.55-1.36a3.08,3.08,0,0,1-1-2.22,3.35,3.35,0,0,1,2.72-2.72"/><path class="cls-28" d="M101.91,49.26a3.11,3.11,0,0,0,2.57.08c1.11-.61,1-2,1.83-2.34.59-.24,1.64.08,3.61,2.3"/><path class="cls-29" d="M86.36,61.9a3.15,3.15,0,0,0,2.54.38c1.18-.47,1.24-1.87,2.1-2.1.62-.16,1.62.28,3.31,2.72"/><path class="cls-30" d="M77,78.4c3.78-13.08,9.67-18.92,14.63-21.79,4.14-2.39,8.48-3.21,10.22-7.14,1.91-4.34-.57-9.68-3.07-13.62"/><path class="cls-31" d="M76,78.26a1.1,1.1,0,0,0,.64,1.08,1.21,1.21,0,0,0,1.49-1.08A1.14,1.14,0,0,0,77,77.13,1.16,1.16,0,0,0,76,78.26Z"/><path class="cls-19" d="M99.78,35.78a1.11,1.11,0,0,1-.63,1.08,1.21,1.21,0,0,1-1.49-1.08,1.12,1.12,0,0,1,1.06-1.13A1.14,1.14,0,0,1,99.78,35.78Z"/><path class="cls-32" d="M110.71,49.3a1.1,1.1,0,0,1-.74,1,1.22,1.22,0,0,1-1.37-1.23,1.06,1.06,0,1,1,2.11.22Z"/><path class="cls-33" d="M94.57,46a1.11,1.11,0,0,1-.64,1.08A1.21,1.21,0,0,1,92.44,46a1.13,1.13,0,0,1,1.07-1.13A1.16,1.16,0,0,1,94.57,46Z"/><ellipse class="cls-22" cx="96.06" cy="33.36" rx="1.32" ry="4.26" transform="translate(3.86 76.25) rotate(-44.1)"/><ellipse class="cls-22" cx="97.46" cy="39.6" rx="1.14" ry="3.67" transform="translate(22.17 113.06) rotate(-66.41)"/><ellipse class="cls-22" cx="104.77" cy="40.88" rx="3.96" ry="1.23" transform="translate(16.52 110.59) rotate(-59.62)"/><ellipse class="cls-22" cx="108.94" cy="44.32" rx="2.75" ry="0.85" transform="translate(-4.89 73.9) rotate(-36.7)"/><ellipse class="cls-22" cx="97.25" cy="47.45" rx="1.3" ry="4.2" transform="translate(-9.95 62.17) rotate(-33.83)"/><ellipse class="cls-22" cx="88.09" cy="46.14" rx="1.02" ry="3.29" transform="matrix(0.85, -0.52, 0.52, 0.85, -11.15, 52.4)"/><ellipse class="cls-22" cx="88.19" cy="54.93" rx="3.2" ry="0.99" transform="translate(16.99 130.59) rotate(-78.65)"/><ellipse class="cls-22" cx="107.01" cy="50.43" rx="0.74" ry="2.38" transform="translate(7.75 114.8) rotate(-58.19)"/><ellipse class="cls-22" cx="113.04" cy="49.23" rx="1.15" ry="3.73" transform="translate(57.87 159.49) rotate(-86.95)"/><ellipse class="cls-22" cx="94.12" cy="49.38" rx="2.66" ry="0.82" transform="translate(4.18 106.02) rotate(-59.88)"/><ellipse class="cls-22" cx="82.62" cy="60.73" rx="0.94" ry="3.05" transform="translate(-7.48 11.78) rotate(-7.8)"/><ellipse class="cls-22" cx="83.92" cy="66.49" rx="2.62" ry="0.81" transform="matrix(0.95, -0.32, 0.32, 0.95, -16.91, 30.48)"/><ellipse class="cls-22" cx="92.72" cy="58.77" rx="2.2" ry="0.68" transform="translate(-16.33 46.13) rotate(-25.76)"/><ellipse class="cls-22" cx="90.14" cy="63.93" rx="0.68" ry="2.2" transform="translate(-6.87 116.87) rotate(-63.97)"/><ellipse class="cls-22" cx="95.08" cy="62.79" rx="2.63" ry="0.81"/><ellipse class="cls-22" cx="78.35" cy="69.14" rx="0.68" ry="2.2" transform="translate(-9.72 12.91) rotate(-8.87)"/><ellipse class="cls-22" cx="97.58" cy="57.91" rx="0.62" ry="2.01" transform="translate(-15.73 51.85) rotate(-27.63)"/><ellipse class="cls-22" cx="102.7" cy="59.92" rx="0.62" ry="2.01" transform="translate(-10.25 22.76) rotate(-12.05)"/><ellipse class="cls-22" cx="103.2" cy="55.77" rx="0.83" ry="2.69" transform="translate(39.79 154.46) rotate(-85.67)"/><ellipse class="cls-22" cx="97.8" cy="66.25" rx="2.01" ry="0.62" transform="translate(-19.5 52.31) rotate(-27.34)"/><ellipse class="cls-22" cx="105.02" cy="66.88" rx="2.86" ry="0.89" transform="translate(-6.01 10.53) rotate(-5.58)"/><ellipse class="cls-22" cx="109.21" cy="60.35" rx="3.55" ry="1.1" transform="translate(-15.52 56.89) rotate(-27.34)"/><ellipse class="cls-22" cx="90.74" cy="70.2" rx="0.84" ry="2.71" transform="translate(-20.63 97.74) rotate(-51.62)"/><ellipse class="cls-22" cx="87.91" cy="65.8" rx="2.01" ry="0.62" transform="translate(-12.85 109.46) rotate(-60.24)"/><ellipse class="cls-22" cx="107.51" cy="55.65" rx="1.1" ry="3.55"/><ellipse class="cls-22" cx="83.79" cy="72.64" rx="0.84" ry="2.71" transform="translate(8.18 153.76) rotate(-87.94)"/><ellipse class="cls-22" cx="105.71" cy="78.12" rx="3.3" ry="1.02" transform="matrix(0.3, -0.95, 0.95, 0.3, -0.41, 155.68)"/><ellipse class="cls-22" cx="101.43" cy="73.98" rx="0.84" ry="2.71" transform="matrix(0.86, -0.5, 0.5, 0.86, -23.46, 61.2)"/><ellipse class="cls-22" cx="107.76" cy="73.45" rx="0.84" ry="2.71" transform="translate(8.12 157.58) rotate(-74.46)"/><path class="cls-34" d="M73.92,29.07c-1.77,3-3.79,3.51-6.81,4.21a7.85,7.85,0,0,0-2,.76c-.91.56-1.12,1.08-1.35,1-.4-.16-.07-1.81.16-3,.61-2.88.75-3.81,2.77-6,2-1.88,5.41-3.12,8.31-3.61A8.39,8.39,0,0,1,75.16,26,8.92,8.92,0,0,1,73.92,29.07Z"/></svg>